# xmcd
#
# Track frame offsets:
#	150
#	16517
#	32100
#	48094
#	64154
#	77334
#	90739
#	106686
#	117358
#	130893
#	143079
#	155692
#	169113
#	182581
#	193668
#	210168
#	225829
#	239958
#	255258
#	267887
#
# Disc length: 3712 seconds
#
# Revision: 0
# Processed by: cddbd v1.5.2PL0 Copyright (c) Steve Scherf et al.
# Submitted via: EasyCDDAExtractor 15.3.0.1
#
DISCID=f70e7e14
DTITLE=Eero Aven - O Sole Mio 2016 (& Soundse Yhtyet)
DYEAR=2016
DGENRE=Suomi Rautalanka
TTITLE0=O Sole Mio
TTITLE1=Malja Huomiselle (Toast To Tomorrow)
TTITLE2=Sinkun Kaipaus (I Will Stay)
TTITLE3=Iltatuulen Viesti
TTITLE4=Kuutamotango
TTITLE5=Kauneimmat Ruusut
TTITLE6=Anna Minulle Mahdollisuus
TTITLE7=Muistojen Inari
TTITLE8=Aikuinen Mies
TTITLE9=Harhakuva
TTITLE10=Ilmaveivitwist
TTITLE11=Kotiseutuni
TTITLE12=Kultahipun Laulu
TTITLE13=Kaipuun Kukka (Passion Flower)
TTITLE14=Kiitostanssi
TTITLE15=Talvenruusu (Talven Ruusu)
TTITLE16=Kulkurin Kaiho
TTITLE17=Joronjäljillä
TTITLE18=Keinu Kanssani (Sway)
TTITLE19=Punainen Nenä Ja Siniset Silmät
EXTD=
EXTT0=
EXTT1=
EXTT2=
EXTT3=
EXTT4=
EXTT5=
EXTT6=
EXTT7=
EXTT8=
EXTT9=
EXTT10=
EXTT11=
EXTT12=
EXTT13=
EXTT14=
EXTT15=
EXTT16=
EXTT17=
EXTT18=
EXTT19=
PLAYORDER=
